<?xml version="1.0" encoding="UTF-8"?>
<svg width="10px" height="12px" viewBox="0 0 10 12" version="1.1" xmlns="http://www.w3.org/2000/svg" xmlns:xlink="http://www.w3.org/1999/xlink">
    <title>16px - Check mark - White@1.5x</title>
    <g id="Design" stroke="none" stroke-width="1" fill="none" fill-rule="evenodd">
        <g id="Artboard" transform="translate(-231.000000, -390.000000)">
            <g id="Icon" transform="translate(228.000000, 388.000000)">
                <rect id="Rectangle" x="0" y="0" width="16" height="16"></rect>
                <path d="M12.2489098,2.94812744 C12.6210392,3.13004108 12.7888601,3.56248003 12.6484991,3.94289117 L12.616287,4.01819005 L8.74989546,11.9274267 C8.23245222,12.9859281 6.95489662,13.4245425 5.89639517,12.9070992 C5.71150305,12.8167156 5.54090846,12.7001752 5.3897729,12.5612817 L5.28015046,12.4529797 L3.48423446,10.545694 C3.18134764,10.2240243 3.19657416,9.71772121 3.51824383,9.4148344 C3.81846886,9.13214003 4.2795301,9.12655773 4.5859288,9.3885992 L4.6491034,9.44884377 L6.4450194,11.3561295 C6.48910797,11.4029522 6.54130179,11.4414145 6.59908058,11.4696594 C6.84335014,11.5890694 7.13428213,11.5048221 7.27934129,11.2830194 L7.31245565,11.2247413 L11.1788472,3.31550465 C11.3728884,2.9185666 11.8519718,2.75408622 12.2489098,2.94812744 Z" id="Path" fill="#FFFFFF"></path>
            </g>
        </g>
    </g>
</svg>