<?xml version="1.0" encoding="UTF-8"?>
<svg width="10px" height="10px" viewBox="0 0 10 10" version="1.1" xmlns="http://www.w3.org/2000/svg" xmlns:xlink="http://www.w3.org/1999/xlink">
    <title>12px - List - Pink@1.5x</title>
    <g id="UI-design-V2" stroke="none" stroke-width="1" fill="none" fill-rule="evenodd">
        <g id="Artboard-Copy" transform="translate(-849.000000, -181.000000)">
            <g id="Icon-/-List" transform="translate(848.000000, 180.000000)">
                <rect id="Rectangle" x="0" y="0" width="12" height="12"></rect>
                <path d="M5.1,1.9 L10.4,1.9 C10.7313708,1.9 11,2.16862915 11,2.5 C11,2.83137085 10.7313708,3.1 10.4,3.1 L5.1,3.1 C4.76862915,3.1 4.5,2.83137085 4.5,2.5 C4.5,2.16862915 4.76862915,1.9 5.1,1.9 Z M5.1,5.4 L10.4,5.4 C10.7313708,5.4 11,5.66862915 11,6 C11,6.33137085 10.7313708,6.6 10.4,6.6 L5.1,6.6 C4.76862915,6.6 4.5,6.33137085 4.5,6 C4.5,5.66862915 4.76862915,5.4 5.1,5.4 Z M2.25,8.25 C2.94035594,8.25 3.5,8.80964406 3.5,9.5 C3.5,10.1903559 2.94035594,10.75 2.25,10.75 C1.55964406,10.75 1,10.1903559 1,9.5 C1,8.80964406 1.55964406,8.25 2.25,8.25 Z M10.4,8.9 C10.7313708,8.9 11,9.16862915 11,9.5 C11,9.83137085 10.7313708,10.1 10.4,10.1 L5.1,10.1 C4.76862915,10.1 4.5,9.83137085 4.5,9.5 C4.5,9.16862915 4.76862915,8.9 5.1,8.9 L10.4,8.9 Z M2.25,4.75 C2.94035594,4.75 3.5,5.30964406 3.5,6 C3.5,6.69035594 2.94035594,7.25 2.25,7.25 C1.55964406,7.25 1,6.69035594 1,6 C1,5.30964406 1.55964406,4.75 2.25,4.75 Z M2.25,1.25 C2.94035594,1.25 3.5,1.80964406 3.5,2.5 C3.5,3.19035594 2.94035594,3.75 2.25,3.75 C1.55964406,3.75 1,3.19035594 1,2.5 C1,1.80964406 1.55964406,1.25 2.25,1.25 Z" id="Shape" fill="#C94397"></path>
            </g>
        </g>
    </g>
</svg>