<?xml version="1.0" encoding="UTF-8"?>
<svg width="8px" height="8px" viewBox="0 0 8 8" version="1.1" xmlns="http://www.w3.org/2000/svg" xmlns:xlink="http://www.w3.org/1999/xlink">
    <title>12px - Check Mark - Green@1.5x</title>
    <g id="UI-design-V2" stroke="none" stroke-width="1" fill="none" fill-rule="evenodd">
        <g id="Artboard-Copy" transform="translate(-114.000000, -182.000000)">
            <g id="Icon-/-Download" transform="translate(112.000000, 180.000000)">
                <rect id="Rectangle" x="0" y="0" width="12" height="12"></rect>
                <path d="M9.18668235,2.21109558 C9.46577942,2.34753081 9.59164511,2.67186003 9.48637432,2.95716838 L9.46221526,3.01364254 L6.5624216,8.94557001 C6.17433916,9.7394461 5.21617247,10.0684069 4.42229638,9.68032442 C4.28362729,9.61253671 4.15568134,9.52513143 4.04232968,9.42096127 L3.96011284,9.3397348 L2.61317585,7.90927047 C2.38601073,7.66801822 2.39743062,7.28829091 2.63868287,7.0611258 C2.86385165,6.84910502 3.20964757,6.8449183 3.4394466,7.0414494 L3.48682755,7.08663283 L4.83376455,8.51709715 C4.86683098,8.55221413 4.90597634,8.5810609 4.94931043,8.60224456 C5.13251261,8.69180204 5.3507116,8.6286166 5.45950597,8.46226457 L5.48434174,8.41855595 L8.3841354,2.48662848 C8.52966631,2.18892495 8.88897882,2.06556467 9.18668235,2.21109558 Z" id="Path" fill="#00AB00"></path>
            </g>
        </g>
    </g>
</svg>