<?xml version="1.0" encoding="UTF-8"?>
<svg width="12px" height="12px" viewBox="0 0 12 12" version="1.1" xmlns="http://www.w3.org/2000/svg" xmlns:xlink="http://www.w3.org/1999/xlink">
    <title>12px - Time - Pink@1.5x</title>
    <g id="UI-design-V2" stroke="none" stroke-width="1" fill="none" fill-rule="evenodd">
        <g id="Artboard-Copy" transform="translate(-560.000000, -180.000000)">
            <g id="Icon-/-List" transform="translate(560.000000, 180.000000)">
                <rect id="Rectangle" x="0" y="0" width="12" height="12"></rect>
                <path d="M6,0.4 C9.0927946,0.4 11.6,2.9072054 11.6,6 C11.6,9.0927946 9.0927946,11.6 6,11.6 C2.9072054,11.6 0.4,9.0927946 0.4,6 C0.4,2.9072054 2.9072054,0.4 6,0.4 Z M6,1.6 C3.5699471,1.6 1.6,3.5699471 1.6,6 C1.6,8.4300529 3.5699471,10.4 6,10.4 C8.4300529,10.4 10.4,8.4300529 10.4,6 C10.4,3.5699471 8.4300529,1.6 6,1.6 Z M6,2.5 C6.33137085,2.5 6.6,2.76862915 6.6,3.1 L6.599,5.3 L8.3,5.3 C8.59823376,5.3 8.84564675,5.51758961 8.89214701,5.80267688 L8.9,5.9 C8.9,6.23137085 8.63137085,6.5 8.3,6.5 L8.3,6.5 L6,6.5 L6,6.5 C5.66862915,6.5 5.4,6.23137085 5.4,5.9 L5.4,3.1 C5.4,2.76862915 5.66862915,2.5 6,2.5 Z" id="Shape" fill="#C94397"></path>
            </g>
        </g>
    </g>
</svg>