<?xml version="1.0" encoding="UTF-8" standalone="no"?>
<svg
   xmlns:dc="http://purl.org/dc/elements/1.1/"
   xmlns:cc="http://creativecommons.org/ns#"
   xmlns:rdf="http://www.w3.org/1999/02/22-rdf-syntax-ns#"
   xmlns:svg="http://www.w3.org/2000/svg"
   xmlns="http://www.w3.org/2000/svg"
   xmlns:sodipodi="http://sodipodi.sourceforge.net/DTD/sodipodi-0.dtd"
   xmlns:inkscape="http://www.inkscape.org/namespaces/inkscape"
   version="1.1"
   id="svg2"
   xml:space="preserve"
   width="32"
   height="29.333332"
   viewBox="0 0 32 29.333332"
   sodipodi:docname="12px - Chat - Pink@2x.eps"><metadata
     id="metadata8"><rdf:RDF><cc:Work
         rdf:about=""><dc:format>image/svg+xml</dc:format><dc:type
           rdf:resource="http://purl.org/dc/dcmitype/StillImage" /></cc:Work></rdf:RDF></metadata><defs
     id="defs6"><clipPath
       clipPathUnits="userSpaceOnUse"
       id="clipPath20"><path
         d="m 187.934,216 c 23.195,0 42,-18.805 42,-42 0,-0.934 -0.032,-1.863 -0.094,-2.793 v 0 L 223.305,73.1563 C 222.137,55.625 207.57,42 190,42 v 0 h -8 V 31.4688 C 182,19.8477 172.988,10.332 161.57,9.52344 v 0 L 160,9.46875 c -5.434,0 -10.672,2.01175 -14.711,5.64455 v 0 L 115.398,42 H 58.0664 C 36.6445,42 18.7813,58.0898 16.3477,79.1523 v 0 l -0.1875,2.0547 -6,90 c -1.54301,23.145 15.9687,43.156 39.1132,44.699 0.9297,0.063 1.8594,0.094 2.793,0.094 v 0 z m 0,-24 -136.4652,-0.012 -0.5977,-0.027 c -9.9219,-0.66 -17.4258,-9.238 -16.7656,-19.16 v 0 l 6,-90.0002 C 40.7383,73.3477 48.5898,66 58.0664,66 v 0 h 58.0976 c 5.434,0 10.672,-2.0117 14.715,-5.6445 v 0 L 158,35.9609 V 44 c 0,11.6211 9.012,21.1406 20.43,21.9453 v 0 L 180,66 h 10 c 4.938,0 9.027,3.8281 9.355,8.7539 v 0 l 6.54,98.0471 0.039,1.199 c 0,9.941 -8.059,18 -18,18 z M 160,124 c 5.523,0 10,-4.477 10,-10 0,-5.523 -4.477,-10 -10,-10 H 80 c -5.5234,0 -10,4.477 -10,10 0,5.523 4.4766,10 10,10 z m 10,40 c 5.523,0 10,-4.477 10,-10 0,-5.523 -4.477,-10 -10,-10 H 70 c -5.5234,0 -10,4.477 -10,10 0,5.523 4.4766,10 10,10 z"
         clip-rule="evenodd"
         id="path18" /></clipPath><clipPath
       clipPathUnits="userSpaceOnUse"
       id="clipPath26"><path
         d="M 0,0 H 240 V 220 H 0 Z"
         id="path24" /></clipPath></defs><sodipodi:namedview
     pagecolor="#ffffff"
     bordercolor="#666666"
     borderopacity="1"
     objecttolerance="10"
     gridtolerance="10"
     guidetolerance="10"
     inkscape:pageopacity="0"
     inkscape:pageshadow="2"
     inkscape:window-width="640"
     inkscape:window-height="480"
     id="namedview4" /><g
     id="g10"
     inkscape:groupmode="layer"
     inkscape:label="ink_ext_XXXXXX"
     transform="matrix(1.3333333,0,0,-1.3333333,0,29.333333)"><g
       id="g12"
       transform="scale(0.1)"><g
         id="g14"><g
           id="g16"
           clip-path="url(#clipPath20)"><g
             id="g22"
             clip-path="url(#clipPath26)"><path
               d="m -11.3828,-10.5313 h 261.316 v 246.531 h -261.316 z"
               style="fill:#c94198;fill-opacity:1;fill-rule:nonzero;stroke:none"
               id="path28" /></g></g></g></g></g></svg>
