<?xml version="1.0" encoding="UTF-8" standalone="no"?>
<svg
   xmlns:dc="http://purl.org/dc/elements/1.1/"
   xmlns:cc="http://creativecommons.org/ns#"
   xmlns:rdf="http://www.w3.org/1999/02/22-rdf-syntax-ns#"
   xmlns:svg="http://www.w3.org/2000/svg"
   xmlns="http://www.w3.org/2000/svg"
   xmlns:sodipodi="http://sodipodi.sourceforge.net/DTD/sodipodi-0.dtd"
   xmlns:inkscape="http://www.inkscape.org/namespaces/inkscape"
   version="1.1"
   id="svg2"
   xml:space="preserve"
   width="42.666668"
   height="40"
   viewBox="0 0 42.666668 40"
   sodipodi:docname="16px - Chat - White@2x.eps"><metadata
     id="metadata8"><rdf:RDF><cc:Work
         rdf:about=""><dc:format>image/svg+xml</dc:format><dc:type
           rdf:resource="http://purl.org/dc/dcmitype/StillImage" /></cc:Work></rdf:RDF></metadata><defs
     id="defs6"><clipPath
       clipPathUnits="userSpaceOnUse"
       id="clipPath20"><path
         d="m 250.578,288 c 30.926,0 56,-25.07 56,-56 0,-1.242 -0.043,-2.484 -0.125,-3.727 v 0 L 297.738,97.543 C 296.18,74.1641 276.762,56 253.332,56 v 0 H 242.668 V 41.9609 c 0,-15.4961 -12.016,-28.1875 -27.238,-29.2617 v 0 l -2.098,-0.0742 c -7.242,0 -14.23,2.6836 -19.617,7.5273 v 0 L 153.867,56 H 77.4219 c -28.5586,0 -52.3828,21.4531 -55.625,49.535 v 0 l -0.25,2.738 -8,120 c -2.0586,30.86 21.289,57.547 52.1484,59.602 1.2422,0.082 2.4844,0.125 3.7266,0.125 v 0 z m 0,-32 -181.953,-0.012 -0.8008,-0.043 C 54.6016,255.066 44.5938,243.629 45.4766,230.402 v 0 l 8,-120 C 54.3164,97.7969 64.7852,88 77.4219,88 v 0 h 77.4651 c 7.242,0 14.23,-2.6797 19.617,-7.5234 v 0 L 210.668,47.9453 V 58.668 c 0,15.4961 12.016,28.1836 27.238,29.2578 v 0 L 240,88 h 13.332 c 6.586,0 12.039,5.1055 12.477,11.6719 v 0 l 8.714,130.7301 0.055,1.598 c 0,13.254 -10.746,24 -24,24 z m -37.246,-90.668 c 7.363,0 13.336,-5.969 13.336,-13.332 0,-7.363 -5.973,-13.332 -13.336,-13.332 H 106.668 c -7.3633,0 -13.336,5.969 -13.336,13.332 0,7.363 5.9727,13.332 13.336,13.332 z m 13.336,53.336 c 7.363,0 13.332,-5.973 13.332,-13.336 C 240,197.969 234.031,192 226.668,192 H 93.332 C 85.9688,192 80,197.969 80,205.332 c 0,7.363 5.9688,13.336 13.332,13.336 z"
         clip-rule="evenodd"
         id="path18" /></clipPath><clipPath
       clipPathUnits="userSpaceOnUse"
       id="clipPath26"><path
         d="M 0,0 H 320 V 300 H 0 Z"
         id="path24" /></clipPath></defs><sodipodi:namedview
     pagecolor="#ffffff"
     bordercolor="#666666"
     borderopacity="1"
     objecttolerance="10"
     gridtolerance="10"
     guidetolerance="10"
     inkscape:pageopacity="0"
     inkscape:pageshadow="2"
     inkscape:window-width="640"
     inkscape:window-height="480"
     id="namedview4" /><g
     id="g10"
     inkscape:groupmode="layer"
     inkscape:label="ink_ext_XXXXXX"
     transform="matrix(1.3333333,0,0,-1.3333333,0,40)"><g
       id="g12"
       transform="scale(0.1)"><g
         id="g14"><g
           id="g16"
           clip-path="url(#clipPath20)"><g
             id="g22"
             clip-path="url(#clipPath26)"><path
               d="m -8.51172,-7.375 h 335.09 V 308 h -335.09 z"
               style="fill:#ffffff;fill-opacity:1;fill-rule:nonzero;stroke:none"
               id="path28" /></g></g></g></g></g></svg>
