<?xml version="1.0" encoding="UTF-8"?>
<svg width="8px" height="8px" viewBox="0 0 8 8" version="1.1" xmlns="http://www.w3.org/2000/svg" xmlns:xlink="http://www.w3.org/1999/xlink">
    <title>12px - Cross - Red@1.5x</title>
    <g id="UI-design-V2" stroke="none" stroke-width="1" fill="none" fill-rule="evenodd">
        <g id="Artboard-Copy" transform="translate(-242.000000, -182.000000)">
            <g id="Icon-/-Download" transform="translate(240.000000, 180.000000)">
                <rect id="Rectangle" x="0" y="0" width="12" height="12"></rect>
                <path d="M9.18198052,2.81801948 C9.41629509,3.05233406 9.41629509,3.43223305 9.18198052,3.66654762 L6.84852814,6 L9.18198052,8.33345238 C9.41629509,8.56776695 9.41629509,8.94766594 9.18198052,9.18198052 C8.94766594,9.41629509 8.56776695,9.41629509 8.33345238,9.18198052 L6,6.84852814 L3.66654762,9.18198052 C3.43223305,9.41629509 3.05233406,9.41629509 2.81801948,9.18198052 C2.58370491,8.94766594 2.58370491,8.56776695 2.81801948,8.33345238 L5.15147186,6 L2.81801948,3.66654762 C2.58370491,3.43223305 2.58370491,3.05233406 2.81801948,2.81801948 C3.05233406,2.58370491 3.43223305,2.58370491 3.66654762,2.81801948 L6,5.15147186 L8.33345238,2.81801948 C8.56776695,2.58370491 8.94766594,2.58370491 9.18198052,2.81801948 Z" id="Combined-Shape" fill="#FF634E"></path>
            </g>
        </g>
    </g>
</svg>