<?xml version="1.0" encoding="UTF-8" standalone="no"?>
<svg
   xmlns:dc="http://purl.org/dc/elements/1.1/"
   xmlns:cc="http://creativecommons.org/ns#"
   xmlns:rdf="http://www.w3.org/1999/02/22-rdf-syntax-ns#"
   xmlns:svg="http://www.w3.org/2000/svg"
   xmlns="http://www.w3.org/2000/svg"
   xmlns:sodipodi="http://sodipodi.sourceforge.net/DTD/sodipodi-0.dtd"
   xmlns:inkscape="http://www.inkscape.org/namespaces/inkscape"
   version="1.1"
   id="svg2"
   xml:space="preserve"
   width="37.333332"
   height="42.666668"
   viewBox="0 0 37.333332 42.666668"
   sodipodi:docname="16px - Trash - Pink@2x.eps"><metadata
     id="metadata8"><rdf:RDF><cc:Work
         rdf:about=""><dc:format>image/svg+xml</dc:format><dc:type
           rdf:resource="http://purl.org/dc/dcmitype/StillImage" /></cc:Work></rdf:RDF></metadata><defs
     id="defs6"><clipPath
       clipPathUnits="userSpaceOnUse"
       id="clipPath20"><path
         d="m 153.332,309.332 c 23.566,0 42.668,-19.102 42.668,-42.664 v 0 l -0.012,-13.336 h 61.344 c 8.836,0 16,-7.164 16,-16 0,-8.836 -7.164,-16 -16,-16 h -8.984 L 237.551,50.6367 C 236.191,29.1875 219.145,12.2695 198.012,10.7734 L 194.969,10.668 H 85.0313 c -22.5157,0 -41.1563,17.4961 -42.5821,39.9687 v 0 L 31.625,221.332 h -8.957 c -8.836,0 -16.00003,7.164 -16.00003,16 0,8.836 7.16403,16 16.00003,16 H 83.9883 L 84,266.668 c 0,22.539 17.477,40.996 39.621,42.559 l 3.047,0.105 z m 62.949,-88 H 63.707 L 74.3867,52.6602 c 0.3242,-5.1524 4.2696,-9.2539 9.2617,-9.9024 v 0 L 85.0313,42.668 H 194.969 c 5.629,0 10.289,4.375 10.644,9.9922 v 0 z m -76.281,-28 c 6.836,0 12.473,-5.144 13.242,-11.777 L 153.332,180 V 86.668 c 0,-7.3633 -5.969,-13.336 -13.332,-13.336 -6.836,0 -12.473,5.1485 -13.242,11.7813 l -0.09,1.5547 V 180 c 0,7.363 5.969,13.332 13.332,13.332 z m 13.332,84 h -26.664 c -5.891,0 -10.668,-4.773 -10.668,-10.664 v 0 -13.32 h 48 v 13.32 c 0,5.437 -4.07,9.926 -9.328,10.582 v 0 z"
         clip-rule="evenodd"
         id="path18" /></clipPath><clipPath
       clipPathUnits="userSpaceOnUse"
       id="clipPath26"><path
         d="M 0,0 H 280 V 320 H 0 Z"
         id="path24" /></clipPath></defs><sodipodi:namedview
     pagecolor="#ffffff"
     bordercolor="#666666"
     borderopacity="1"
     objecttolerance="10"
     gridtolerance="10"
     guidetolerance="10"
     inkscape:pageopacity="0"
     inkscape:pageshadow="2"
     inkscape:window-width="640"
     inkscape:window-height="480"
     id="namedview4" /><g
     id="g10"
     inkscape:groupmode="layer"
     inkscape:label="ink_ext_XXXXXX"
     transform="matrix(1.3333333,0,0,-1.3333333,0,42.666667)"><g
       id="g12"
       transform="scale(0.1)"><g
         id="g14"><g
           id="g16"
           clip-path="url(#clipPath20)"><g
             id="g22"
             clip-path="url(#clipPath26)"><path
               d="m -13.332,-9.33203 h 306.664 v 338.664 H -13.332 Z"
               style="fill:#c94198;fill-opacity:1;fill-rule:nonzero;stroke:none"
               id="path28" /></g></g></g></g></g></svg>
