<?xml version="1.0" encoding="UTF-8"?>
<svg width="12px" height="12px" viewBox="0 0 12 12" version="1.1" xmlns="http://www.w3.org/2000/svg" xmlns:xlink="http://www.w3.org/1999/xlink">
    <title>12px - Download - Pink@1.5x</title>
    <g id="UI-design-V2" stroke="none" stroke-width="1" fill="none" fill-rule="evenodd">
        <g id="Artboard-Copy" transform="translate(-784.000000, -180.000000)">
            <g id="Icon-/-Download" transform="translate(784.000000, 180.000000)">
                <rect id="Rectangle" x="0" y="0" width="12" height="12"></rect>
                <path d="M9.68452381,0.9 C10.5377085,0.9 11.2349218,1.56779312 11.281991,2.40920669 L11.2845238,2.5 L11.2845238,9.5 C11.2845238,10.3531847 10.6167307,11.050398 9.77531712,11.0974672 L9.68452381,11.1 L7.68452381,11.1 C7.35315296,11.1 7.08452381,10.8313708 7.08452381,10.5 C7.08452381,10.1893398 7.32062365,9.93382373 7.62317729,9.90309773 L7.68452381,9.9 L9.68452381,9.9 C9.88844433,9.9 10.0567246,9.74740593 10.0814072,9.55017515 L10.0845238,9.5 L10.0845238,2.5 C10.0845238,2.29607948 9.93192974,2.12779921 9.73469896,2.10311657 L9.68452381,2.1 L7.68452381,2.1 C7.35315296,2.1 7.08452381,1.83137085 7.08452381,1.5 C7.08452381,1.18933983 7.32062365,0.933823729 7.62317729,0.903097732 L7.68452381,0.9 L9.68452381,0.9 Z M6.84485811,2.93717881 L6.89007777,2.98452518 L8.86116718,5.28412949 C9.19464137,5.67318271 9.21316771,6.23699611 8.91674621,6.64546713 L8.86116718,6.71587051 L6.89007777,9.01547482 C6.67442448,9.26707033 6.29564449,9.29620725 6.04404899,9.08055396 C5.80922651,8.87927756 5.76819019,8.53589967 5.93909644,8.28645405 L5.97896985,8.23452518 L7.38047619,6.599 L1.31547619,6.6 C0.984105341,6.6 0.71547619,6.33137085 0.71547619,6 C0.71547619,5.68933983 0.951576029,5.43382373 1.25412968,5.40309773 L1.31547619,5.4 L7.37947619,5.4 L5.97896985,3.76547482 C5.76331656,3.51387932 5.79245348,3.13509933 6.04404899,2.91944604 C6.27887146,2.71816963 6.62448575,2.7301327 6.84485811,2.93717881 Z" id="Shape" fill="#C94397" transform="translate(6.000000, 6.000000) rotate(90.000000) translate(-6.000000, -6.000000) "></path>
            </g>
        </g>
    </g>
</svg>