<?xml version="1.0" encoding="UTF-8"?>
<svg width="10px" height="10px" viewBox="0 0 10 10" version="1.1" xmlns="http://www.w3.org/2000/svg" xmlns:xlink="http://www.w3.org/1999/xlink">
    <title>12px - Edit - Pink@1.5x</title>
    <g id="UI-design-V2" stroke="none" stroke-width="1" fill="none" fill-rule="evenodd">
        <g id="Artboard-Copy" transform="translate(-817.000000, -181.000000)">
            <g id="Icon-/-Download" transform="translate(816.000000, 180.000000)">
                <rect id="Rectangle" x="0" y="0" width="12" height="12"></rect>
                <path d="M3.17638902,10.1510388 L3.1869063,10.5824632 L3.1869063,10.5824632 L1.21890961,10.9297801 C1.15314784,10.9413859 1.08781709,10.8969614 1.0729893,10.8305552 C1.06944465,10.8146805 1.06904809,10.7984136 1.07182251,10.782693 L1.41913935,8.81469628 L1.85056381,8.82521355 C2.09215988,8.83110319 2.28661591,9.02555922 2.29250555,9.26715529 C2.29839518,9.50875136 2.49285122,9.70320739 2.73444728,9.70909703 C2.97604335,9.71498667 3.17049939,9.9094427 3.17638902,10.1510388 Z M9.50051404,4.26885549 L3.60781348,10.161556 L3.5972962,9.73013159 C3.59140657,9.48853552 3.39695054,9.29407948 3.15535447,9.28818985 C2.9137584,9.28230021 2.71930236,9.08784418 2.71341273,8.84624811 C2.70752309,8.60465204 2.51306706,8.41019601 2.27147099,8.40430637 L1.84004653,8.39378909 L1.84004653,8.39378909 L7.73274709,2.50108854 L9.50051404,4.26885549 Z M10.742201,2.14328502 C10.9862787,2.3873627 10.9956962,2.77367332 10.7632356,3.00613394 L9.92142122,3.84794831 L8.15365427,2.08018135 L8.99546863,1.23836699 C9.22792925,1.00590637 9.61423987,1.01532386 9.85831755,1.25940155 L10.742201,2.14328502 Z" id="Shape" fill="#C94397"></path>
            </g>
        </g>
    </g>
</svg>