<?xml version="1.0" encoding="UTF-8" standalone="no"?>
<svg
   xmlns:dc="http://purl.org/dc/elements/1.1/"
   xmlns:cc="http://creativecommons.org/ns#"
   xmlns:rdf="http://www.w3.org/1999/02/22-rdf-syntax-ns#"
   xmlns:svg="http://www.w3.org/2000/svg"
   xmlns="http://www.w3.org/2000/svg"
   xmlns:sodipodi="http://sodipodi.sourceforge.net/DTD/sodipodi-0.dtd"
   xmlns:inkscape="http://www.inkscape.org/namespaces/inkscape"
   version="1.1"
   id="svg2"
   xml:space="preserve"
   width="26.666668"
   height="32"
   viewBox="0 0 26.666668 32"
   sodipodi:docname="12px - File - Pink@2x.eps"><metadata
     id="metadata8"><rdf:RDF><cc:Work
         rdf:about=""><dc:format>image/svg+xml</dc:format><dc:type
           rdf:resource="http://purl.org/dc/dcmitype/StillImage" /></cc:Work></rdf:RDF></metadata><defs
     id="defs6"><clipPath
       clipPathUnits="userSpaceOnUse"
       id="clipPath20"><path
         d="m 110.633,232 c 9.496,0 18.504,-4.219 24.582,-11.516 v 0 l 39.367,-47.238 c 4.793,-5.754 7.418,-13 7.418,-20.488 v 0 V 40 C 182,22.3281 167.672,8 150,8 V 8 H 50 C 32.3281,8 18,22.3281 18,40 v 0 160 c 0,17.672 14.3281,32 32,32 v 0 z M 78,208 H 50 c -4.418,0 -8,-3.582 -8,-8 v 0 -160 c 0,-4.418 3.582,-8 8,-8 v 0 h 100 c 4.418,0 8,3.582 8,8 v 0 l -0.02,68 H 110 c -17.0625,0 -31.0078,13.355 -31.9492,30.184 L 78,140 Z m 34.039,-0.125 -1.406,0.125 H 101.98 L 102,140 c 0,-4.078 3.051,-7.445 6.996,-7.937 L 110,132 h 47.98 l 0.02,20.758 c 0,1.406 -0.367,2.773 -1.059,3.98 l -0.796,1.141 -39.368,47.242 c -1.519,1.824 -3.769,2.879 -6.144,2.879 z"
         clip-rule="evenodd"
         id="path18" /></clipPath><clipPath
       clipPathUnits="userSpaceOnUse"
       id="clipPath26"><path
         d="M 0,0 H 200 V 240 H 0 Z"
         id="path24" /></clipPath></defs><sodipodi:namedview
     pagecolor="#ffffff"
     bordercolor="#666666"
     borderopacity="1"
     objecttolerance="10"
     gridtolerance="10"
     guidetolerance="10"
     inkscape:pageopacity="0"
     inkscape:pageshadow="2"
     inkscape:window-width="640"
     inkscape:window-height="480"
     id="namedview4" /><g
     id="g10"
     inkscape:groupmode="layer"
     inkscape:label="ink_ext_XXXXXX"
     transform="matrix(1.3333333,0,0,-1.3333333,0,32)"><g
       id="g12"
       transform="scale(0.1)"><g
         id="g14"><g
           id="g16"
           clip-path="url(#clipPath20)"><g
             id="g22"
             clip-path="url(#clipPath26)"><path
               d="M -2,-12 H 202 V 252 H -2 Z"
               style="fill:#c94198;fill-opacity:1;fill-rule:nonzero;stroke:none"
               id="path28" /></g></g></g></g></g></svg>
