<?xml version="1.0" encoding="UTF-8" standalone="no"?>
<svg
   xmlns:dc="http://purl.org/dc/elements/1.1/"
   xmlns:cc="http://creativecommons.org/ns#"
   xmlns:rdf="http://www.w3.org/1999/02/22-rdf-syntax-ns#"
   xmlns:svg="http://www.w3.org/2000/svg"
   xmlns="http://www.w3.org/2000/svg"
   xmlns:sodipodi="http://sodipodi.sourceforge.net/DTD/sodipodi-0.dtd"
   xmlns:inkscape="http://www.inkscape.org/namespaces/inkscape"
   version="1.1"
   id="svg2"
   xml:space="preserve"
   width="26.666668"
   height="32"
   viewBox="0 0 26.666668 32"
   sodipodi:docname="12px - Filter - Pink@2x.eps"><metadata
     id="metadata8"><rdf:RDF><cc:Work
         rdf:about=""><dc:format>image/svg+xml</dc:format><dc:type
           rdf:resource="http://purl.org/dc/dcmitype/StillImage" /></cc:Work></rdf:RDF></metadata><defs
     id="defs6"><clipPath
       clipPathUnits="userSpaceOnUse"
       id="clipPath20"><path
         d="M 160,228 H 40 C 22.3281,228 8,213.672 8,196 v -11.266 c 0,-15.433 6.8555,-30.066 18.7109,-39.945 L 65.1211,112.777 C 66.9453,111.258 68,109.008 68,106.633 V 46 C 68,35.9297 72.7422,26.4414 80.8008,20.3984 l 12,-9 C 97.0391,8.21875 102.199,6.5 107.5,6.5 121.031,6.5 132,17.4688 132,31 v 75.633 c 0,2.375 1.055,4.625 2.879,6.144 l 38.41,32.012 C 185.145,154.668 192,169.301 192,184.734 V 196 c 0,17.672 -14.328,32 -32,32 z M 40,204 h 120 c 4.418,0 8,-3.582 8,-8 v -11.266 c 0,-8.308 -3.691,-16.191 -10.074,-21.507 l -38.41,-32.012 C 112.219,125.137 108,116.129 108,106.633 V 31 c 0,-0.2773 -0.223,-0.5 -0.5,-0.5 -0.109,0 -0.215,0.0352 -0.301,0.1016 l -11.9998,9 C 93.1875,41.1094 92,43.4805 92,46 v 60.633 c 0,9.496 -4.2187,18.504 -11.5156,24.582 L 42.0742,163.227 C 35.6914,168.543 32,176.426 32,184.734 V 196 c 0,4.418 3.582,8 8,8 z"
         clip-rule="evenodd"
         id="path18" /></clipPath><clipPath
       clipPathUnits="userSpaceOnUse"
       id="clipPath26"><path
         d="M 0,0 H 200 V 240 H 0 Z"
         id="path24" /></clipPath></defs><sodipodi:namedview
     pagecolor="#ffffff"
     bordercolor="#666666"
     borderopacity="1"
     objecttolerance="10"
     gridtolerance="10"
     guidetolerance="10"
     inkscape:pageopacity="0"
     inkscape:pageshadow="2"
     inkscape:window-width="640"
     inkscape:window-height="480"
     id="namedview4" /><g
     id="g10"
     inkscape:groupmode="layer"
     inkscape:label="ink_ext_XXXXXX"
     transform="matrix(1.3333333,0,0,-1.3333333,0,32)"><g
       id="g12"
       transform="scale(0.1)"><g
         id="g14"><g
           id="g16"
           clip-path="url(#clipPath20)"><g
             id="g22"
             clip-path="url(#clipPath26)"><path
               d="M -12,-13.5 H 212 V 248 H -12 Z"
               style="fill:#c94198;fill-opacity:1;fill-rule:nonzero;stroke:none"
               id="path28" /></g></g></g></g></g></svg>
