<?xml version="1.0" encoding="UTF-8" standalone="no"?>
<svg
   xmlns:dc="http://purl.org/dc/elements/1.1/"
   xmlns:cc="http://creativecommons.org/ns#"
   xmlns:rdf="http://www.w3.org/1999/02/22-rdf-syntax-ns#"
   xmlns:svg="http://www.w3.org/2000/svg"
   xmlns="http://www.w3.org/2000/svg"
   xmlns:sodipodi="http://sodipodi.sourceforge.net/DTD/sodipodi-0.dtd"
   xmlns:inkscape="http://www.inkscape.org/namespaces/inkscape"
   version="1.1"
   id="svg2"
   xml:space="preserve"
   width="37.333332"
   height="37.333332"
   viewBox="0 0 37.333332 37.333332"
   sodipodi:docname="16px - Link - Pink@2x.eps"><metadata
     id="metadata8"><rdf:RDF><cc:Work
         rdf:about=""><dc:format>image/svg+xml</dc:format><dc:type
           rdf:resource="http://purl.org/dc/dcmitype/StillImage" /></cc:Work></rdf:RDF></metadata><defs
     id="defs6"><clipPath
       clipPathUnits="userSpaceOnUse"
       id="clipPath20"><path
         d="m 179.598,179.598 c 31.566,-31.567 32.269,-82.3089 2.105,-114.7269 L 179.598,62.6914 141.887,24.9766 C 109.602,-7.30469 57.2617,-7.30469 24.9766,24.9766 -6.58984,56.543 -7.28906,107.285 22.8711,139.703 l 2.1055,2.184 9.4297,9.426 c 6.246,6.25 16.3789,6.25 22.625,0 5.8593,-5.856 6.2265,-15.125 1.1015,-21.411 l -1.1015,-1.214 -9.4258,-9.43 c -19.7891,-19.7853 -19.7891,-51.8674 0,-71.6525 19.1679,-19.168 49.875,-19.7696 69.7615,-1.7969 l 1.891,1.7969 37.711,37.7109 c 19.789,19.7886 19.789,51.8676 0,71.6526 -6.246,6.25 -6.246,16.379 0,22.629 6.25,6.25 16.379,6.25 22.629,0 z m 75.425,75.425 c 31.567,-31.566 32.266,-82.308 2.106,-114.726 l -2.106,-2.184 -9.429,-9.425 c -6.246,-6.25 -16.379,-6.25 -22.625,0 -5.86,5.855 -6.227,15.125 -1.102,21.41 l 1.102,1.215 9.426,9.429 c 19.789,19.785 19.789,51.867 0,71.653 -19.168,19.168 -49.875,19.769 -69.762,1.796 l -1.891,-1.796 -37.711,-37.711 c -19.789,-19.789 -19.789,-51.868 0,-71.653 6.246,-6.25 6.246,-16.379 0,-22.629 -6.25,-6.2497 -16.379,-6.2497 -22.629,0 -31.5661,31.567 -32.2692,82.309 -2.1051,114.727 l 2.1051,2.18 37.711,37.714 c 32.285,32.282 84.625,32.282 116.91,0 z"
         clip-rule="evenodd"
         id="path18" /></clipPath><clipPath
       clipPathUnits="userSpaceOnUse"
       id="clipPath26"><path
         d="M 0,0 H 280 V 280 H 0 Z"
         id="path24" /></clipPath></defs><sodipodi:namedview
     pagecolor="#ffffff"
     bordercolor="#666666"
     borderopacity="1"
     objecttolerance="10"
     gridtolerance="10"
     guidetolerance="10"
     inkscape:pageopacity="0"
     inkscape:pageshadow="2"
     inkscape:window-width="640"
     inkscape:window-height="480"
     id="namedview4" /><g
     id="g10"
     inkscape:groupmode="layer"
     inkscape:label="ink_ext_XXXXXX"
     transform="matrix(1.3333333,0,0,-1.3333333,0,37.333333)"><g
       id="g12"
       transform="scale(0.1)"><g
         id="g14"><g
           id="g16"
           clip-path="url(#clipPath20)"><g
             id="g22"
             clip-path="url(#clipPath26)"><path
               d="M -20,-20 H 300 V 300 H -20 Z"
               style="fill:#c94198;fill-opacity:1;fill-rule:nonzero;stroke:none"
               id="path28" /></g></g></g></g></g></svg>
