<?xml version="1.0" encoding="UTF-8" standalone="no"?>
<svg
   xmlns:dc="http://purl.org/dc/elements/1.1/"
   xmlns:cc="http://creativecommons.org/ns#"
   xmlns:rdf="http://www.w3.org/1999/02/22-rdf-syntax-ns#"
   xmlns:svg="http://www.w3.org/2000/svg"
   xmlns="http://www.w3.org/2000/svg"
   xmlns:sodipodi="http://sodipodi.sourceforge.net/DTD/sodipodi-0.dtd"
   xmlns:inkscape="http://www.inkscape.org/namespaces/inkscape"
   version="1.1"
   id="svg2"
   xml:space="preserve"
   width="26.666668"
   height="42.666668"
   viewBox="0 0 26.666668 42.666668"
   sodipodi:docname="16px - Pin - Pink@2x.eps"><metadata
     id="metadata8"><rdf:RDF><cc:Work
         rdf:about=""><dc:format>image/svg+xml</dc:format><dc:type
           rdf:resource="http://purl.org/dc/dcmitype/StillImage" /></cc:Work></rdf:RDF></metadata><defs
     id="defs6"><clipPath
       clipPathUnits="userSpaceOnUse"
       id="clipPath20"><path
         d="m 165.977,320 c 7.086,0 12.828,-5.742 12.828,-12.824 0,-4.188 -2.043,-8.11 -5.473,-10.508 L 157.063,285.277 C 146.367,277.793 140,265.559 140,252.508 v -31.922 c 0,-12.918 6.238,-25.043 16.75,-32.551 l 29.918,-21.367 c 8.258,-5.902 10.172,-17.379 4.273,-25.637 -3.453,-4.832 -9.023,-7.699 -14.957,-7.699 L 113.32,133.34 113.332,13.332 C 113.332,5.96875 107.363,0 100,0 92.6367,0 86.668,5.96875 86.668,13.332 L 86.6602,133.34 24.0156,133.332 c -10.1484,0 -18.37888,8.231 -18.37888,18.379 0,5.937 2.86719,11.508 7.69528,14.957 L 43.25,188.035 C 53.7617,195.543 60,207.668 60,220.586 v 31.922 c 0,13.051 -6.3672,25.285 -17.0625,32.769 L 26.668,296.668 c -5.8047,4.062 -7.2149,12.059 -3.1524,17.859 2.3985,3.43 6.3203,5.473 10.5078,5.473 z"
         clip-rule="evenodd"
         id="path18" /></clipPath><clipPath
       clipPathUnits="userSpaceOnUse"
       id="clipPath26"><path
         d="M 0,0 H 200 V 320 H 0 Z"
         id="path24" /></clipPath></defs><sodipodi:namedview
     pagecolor="#ffffff"
     bordercolor="#666666"
     borderopacity="1"
     objecttolerance="10"
     gridtolerance="10"
     guidetolerance="10"
     inkscape:pageopacity="0"
     inkscape:pageshadow="2"
     inkscape:window-width="640"
     inkscape:window-height="480"
     id="namedview4" /><g
     id="g10"
     inkscape:groupmode="layer"
     inkscape:label="ink_ext_XXXXXX"
     transform="matrix(1.3333333,0,0,-1.3333333,0,42.666667)"><g
       id="g12"
       transform="scale(0.1)"><g
         id="g14"><g
           id="g16"
           clip-path="url(#clipPath20)"><g
             id="g22"
             clip-path="url(#clipPath26)"><path
               d="m -14.3633,-20 h 231.203 v 360 h -231.203 z"
               style="fill:#c94198;fill-opacity:1;fill-rule:nonzero;stroke:none"
               id="path28" /></g></g></g></g></g></svg>
