<?xml version="1.0" encoding="UTF-8" standalone="no"?>
<svg
   xmlns:dc="http://purl.org/dc/elements/1.1/"
   xmlns:cc="http://creativecommons.org/ns#"
   xmlns:rdf="http://www.w3.org/1999/02/22-rdf-syntax-ns#"
   xmlns:svg="http://www.w3.org/2000/svg"
   xmlns="http://www.w3.org/2000/svg"
   xmlns:sodipodi="http://sodipodi.sourceforge.net/DTD/sodipodi-0.dtd"
   xmlns:inkscape="http://www.inkscape.org/namespaces/inkscape"
   version="1.1"
   id="svg2"
   xml:space="preserve"
   width="37.333332"
   height="42.666668"
   viewBox="0 0 37.333332 42.666668"
   sodipodi:docname="16px - Refresh - Pink@2x.eps"><metadata
     id="metadata8"><rdf:RDF><cc:Work
         rdf:about=""><dc:format>image/svg+xml</dc:format><dc:type
           rdf:resource="http://purl.org/dc/dcmitype/StillImage" /></cc:Work></rdf:RDF></metadata><defs
     id="defs6"><clipPath
       clipPathUnits="userSpaceOnUse"
       id="clipPath20"><path
         d="m 147.797,302.48 c 6.281,5.055 15.496,4.665 21.328,-1.167 v 0 l 1.164,-1.297 c 5.055,-6.286 4.668,-15.496 -1.164,-21.328 v 0 L 146.25,255.844 C 211.094,252.59 262.668,198.984 262.668,133.332 262.668,65.5859 207.746,10.668 140,10.668 c -67.7461,0 -122.668,54.9179 -122.668,122.664 0,8.836 7.1641,16 16,16 8.836,0 16,-7.164 16,-16 0,-50.0742 40.5938,-90.664 90.668,-90.664 50.074,0 90.668,40.5898 90.668,90.664 0,47.816 -37.016,86.988 -83.953,90.422 l 22.41,-22.441 1.164,-1.297 c 5.055,-6.286 4.668,-15.496 -1.164,-21.328 -6.25,-6.25 -16.379,-6.25 -22.629,0 v 0 l -40.57,40.57 -1.559,1.683 c -9.8709,11.524 -9.3514,28.891 1.559,39.801 v 0 l 40.57,40.571 z"
         clip-rule="evenodd"
         id="path18" /></clipPath><clipPath
       clipPathUnits="userSpaceOnUse"
       id="clipPath26"><path
         d="M 0,0 H 280 V 320 H 0 Z"
         id="path24" /></clipPath></defs><sodipodi:namedview
     pagecolor="#ffffff"
     bordercolor="#666666"
     borderopacity="1"
     objecttolerance="10"
     gridtolerance="10"
     guidetolerance="10"
     inkscape:pageopacity="0"
     inkscape:pageshadow="2"
     inkscape:window-width="640"
     inkscape:window-height="480"
     id="namedview4" /><g
     id="g10"
     inkscape:groupmode="layer"
     inkscape:label="ink_ext_XXXXXX"
     transform="matrix(1.3333333,0,0,-1.3333333,0,42.666667)"><g
       id="g12"
       transform="scale(0.1)"><g
         id="g14"><g
           id="g16"
           clip-path="url(#clipPath20)"><g
             id="g22"
             clip-path="url(#clipPath26)"><path
               d="m -2.66797,-9.33203 h 285.336 v 336.867 h -285.336 z"
               style="fill:#c94198;fill-opacity:1;fill-rule:nonzero;stroke:none"
               id="path28" /></g></g></g></g></g></svg>
