<?xml version="1.0" encoding="UTF-8" standalone="no"?>
<svg
   xmlns:dc="http://purl.org/dc/elements/1.1/"
   xmlns:cc="http://creativecommons.org/ns#"
   xmlns:rdf="http://www.w3.org/1999/02/22-rdf-syntax-ns#"
   xmlns:svg="http://www.w3.org/2000/svg"
   xmlns="http://www.w3.org/2000/svg"
   xmlns:sodipodi="http://sodipodi.sourceforge.net/DTD/sodipodi-0.dtd"
   xmlns:inkscape="http://www.inkscape.org/namespaces/inkscape"
   version="1.1"
   id="svg2"
   xml:space="preserve"
   width="29.333332"
   height="32"
   viewBox="0 0 29.333332 32"
   sodipodi:docname="12px - Profile Leave - Pink@2x.eps"><metadata
     id="metadata8"><rdf:RDF><cc:Work
         rdf:about=""><dc:format>image/svg+xml</dc:format><dc:type
           rdf:resource="http://purl.org/dc/dcmitype/StillImage" /></cc:Work></rdf:RDF></metadata><defs
     id="defs6"><clipPath
       clipPathUnits="userSpaceOnUse"
       id="clipPath20"><path
         d="m 120,100 c 16.66,0 31.523,-2.3203 44.59,-6.9609 C 149.863,84.3555 140,68.3281 140,50 140,33.6328 147.863,19.1016 160.02,9.98047 L 22.9531,10 c -5.5234,0 -10,4.4766 -10,10 0,0.9844 0.1446,1.9648 0.4336,2.9102 C 29.0117,74.3047 64.5508,100 120,100 Z m 88,-38 c 6.629,0 12,-5.3711 12,-12 0,-6.6289 -5.371,-12 -12,-12 h -36 c -6.629,0 -12,5.3711 -12,12 0,6.6289 5.371,12 12,12 z m -83,168 c 24.145,0 43.844,-19.012 44.949,-42.883 L 170,185 c -3.914,-43.332 -20.582,-65 -50,-65 -29.418,0 -46.0859,21.668 -50,65 0,24.852 20.1484,45 45,45 z"
         clip-rule="evenodd"
         id="path18" /></clipPath><clipPath
       clipPathUnits="userSpaceOnUse"
       id="clipPath26"><path
         d="M 0,0 H 220 V 240 H 0 Z"
         id="path24" /></clipPath></defs><sodipodi:namedview
     pagecolor="#ffffff"
     bordercolor="#666666"
     borderopacity="1"
     objecttolerance="10"
     gridtolerance="10"
     guidetolerance="10"
     inkscape:pageopacity="0"
     inkscape:pageshadow="2"
     inkscape:window-width="640"
     inkscape:window-height="480"
     id="namedview4" /><g
     id="g10"
     inkscape:groupmode="layer"
     inkscape:label="ink_ext_XXXXXX"
     transform="matrix(1.3333333,0,0,-1.3333333,0,32)"><g
       id="g12"
       transform="scale(0.1)"><g
         id="g14"><g
           id="g16"
           clip-path="url(#clipPath20)"><g
             id="g22"
             clip-path="url(#clipPath26)"><path
               d="m -7.04688,-10.0195 h 247.047 v 260.02 h -247.047 z"
               style="fill:#c94198;fill-opacity:1;fill-rule:nonzero;stroke:none"
               id="path28" /></g></g></g></g></g></svg>
