<?xml version="1.0" encoding="UTF-8" standalone="no"?>
<svg
   xmlns:dc="http://purl.org/dc/elements/1.1/"
   xmlns:cc="http://creativecommons.org/ns#"
   xmlns:rdf="http://www.w3.org/1999/02/22-rdf-syntax-ns#"
   xmlns:svg="http://www.w3.org/2000/svg"
   xmlns="http://www.w3.org/2000/svg"
   xmlns:sodipodi="http://sodipodi.sourceforge.net/DTD/sodipodi-0.dtd"
   xmlns:inkscape="http://www.inkscape.org/namespaces/inkscape"
   version="1.1"
   id="svg2"
   xml:space="preserve"
   width="32"
   height="32"
   viewBox="0 0 32 32"
   sodipodi:docname="12px - Settings - Pink@2x.eps"><metadata
     id="metadata8"><rdf:RDF><cc:Work
         rdf:about=""><dc:format>image/svg+xml</dc:format><dc:type
           rdf:resource="http://purl.org/dc/dcmitype/StillImage" /></cc:Work></rdf:RDF></metadata><defs
     id="defs6"><clipPath
       clipPathUnits="userSpaceOnUse"
       id="clipPath20"><path
         d="m 120,230 c 5.879,0 11,-4 12.426,-9.703 l 5.613,-22.34 c 1.801,-0.414 3.578,-0.891 5.328,-1.422 l 16.02,16.539 c 4.086,4.223 10.523,5.129 15.613,2.188 5.09,-2.938 7.527,-8.961 5.91,-14.614 l -6.324,-22.164 c 1.344,-1.254 2.644,-2.554 3.898,-3.898 l 22.164,6.324 c 5.653,1.617 11.676,-0.82 14.614,-5.91 2.941,-5.09 2.035,-11.527 -2.188,-15.613 l -16.539,-16.02 c 0.535,-1.758 1.012,-3.543 1.426,-5.347 l 22.336,-5.594 C 226,131 230,125.879 230,120 c 0,-5.879 -4,-11 -9.703,-12.426 l -22.34,-5.613 c -0.414,-1.801 -0.891,-3.5782 -1.422,-5.3282 l 16.539,-16.0195 c 4.223,-4.086 5.129,-10.5235 2.188,-15.6133 -2.938,-5.0898 -8.961,-7.5273 -14.614,-5.9102 l -22.164,6.3243 c -1.254,-1.3438 -2.554,-2.6446 -3.898,-3.8985 l 6.324,-22.164 c 1.617,-5.6524 -0.82,-11.6758 -5.91,-14.6133 -5.09,-2.9414 -11.527,-2.0352 -15.613,2.1875 l -16.02,16.539 c -1.75,-0.5312 -3.527,-1.0078 -5.328,-1.4218 L 132.426,19.7031 C 131,14 125.879,10 120,10 c -5.223,0 -9.852,3.1602 -11.816,7.8672 l -0.61,1.8359 -5.594,22.336 c -1.804,0.414 -3.5894,0.8906 -5.3472,1.4257 L 80.6133,26.9258 C 76.5273,22.7031 70.0898,21.7969 65,24.7383 60.4766,27.3477 58.0469,32.3984 58.6992,37.457 l 0.3906,1.8946 6.3243,22.164 c -1.3438,1.2539 -2.6446,2.5547 -3.8985,3.8985 L 39.3516,59.0898 C 33.6992,57.4727 27.6758,59.9102 24.7383,65 22.1641,69.4531 22.5352,74.9375 25.5,78.9766 l 1.4258,1.6367 16.539,16.0195 c -0.5312,1.75 -1.0078,3.5272 -1.4218,5.3282 l -22.3399,5.613 C 14,109 10,114.121 10,120 c 0,5.223 3.1602,9.852 7.8672,11.816 l 1.8359,0.61 22.336,5.594 c 0.414,1.804 0.8906,3.589 1.4257,5.347 l -16.539,16.02 c -4.2227,4.086 -5.1289,10.523 -2.1875,15.613 2.6094,4.523 7.6601,6.953 12.7187,6.301 l 1.8946,-0.391 22.164,-6.324 c 1.2539,1.344 2.5547,2.644 3.8985,3.898 l -6.3243,22.164 c -1.6171,5.653 0.8204,11.676 5.9102,14.614 4.4531,2.574 9.9375,2.203 13.9766,-0.762 l 1.6367,-1.426 16.0195,-16.539 c 1.7578,0.535 3.5432,1.012 5.3472,1.426 l 5.594,22.336 C 109,226 114.121,230 120,230 Z m 0,-50 c -33.1367,0 -60,-26.863 -60,-60 0,-33.1367 26.8633,-60 60,-60 33.137,0 60,26.8633 60,60 0,33.137 -26.863,60 -60,60 z m 0,-35 c 13.809,0 25,-11.191 25,-25 0,-13.809 -11.191,-25 -25,-25 -13.809,0 -25,11.191 -25,25 0,13.809 11.191,25 25,25 z m 0,-10 c -8.285,0 -15,-6.715 -15,-15 0,-8.285 6.715,-15 15,-15 8.285,0 15,6.715 15,15 0,8.285 -6.715,15 -15,15 z"
         clip-rule="evenodd"
         id="path18" /></clipPath><clipPath
       clipPathUnits="userSpaceOnUse"
       id="clipPath26"><path
         d="M 0,0 H 240 V 240 H 0 Z"
         id="path24" /></clipPath></defs><sodipodi:namedview
     pagecolor="#ffffff"
     bordercolor="#666666"
     borderopacity="1"
     objecttolerance="10"
     gridtolerance="10"
     guidetolerance="10"
     inkscape:pageopacity="0"
     inkscape:pageshadow="2"
     inkscape:window-width="640"
     inkscape:window-height="480"
     id="namedview4" /><g
     id="g10"
     inkscape:groupmode="layer"
     inkscape:label="ink_ext_XXXXXX"
     transform="matrix(1.3333333,0,0,-1.3333333,0,32)"><g
       id="g12"
       transform="scale(0.1)"><g
         id="g14"><g
           id="g16"
           clip-path="url(#clipPath20)"><g
             id="g22"
             clip-path="url(#clipPath26)"><path
               d="M -10,-10 H 250 V 250 H -10 Z"
               style="fill:#c94198;fill-opacity:1;fill-rule:nonzero;stroke:none"
               id="path28" /></g></g></g></g></g></svg>
