<svg width="19" height="18" viewBox="0 0 19 18" fill="none" xmlns="http://www.w3.org/2000/svg">
<path d="M17.9558 2.93908L11.8949 9L17.9558 15.0609C18.6225 15.7276 18.6225 16.8186 17.9558 17.4853C17.2891 18.152 16.1982 18.152 15.5315 17.4853L9.47056 11.4244L3.40965 17.4853C2.74295 18.152 1.65198 18.152 0.985281 17.4853C0.318581 16.8186 0.31858 15.7276 0.985281 15.0609L7.0462 9L0.985281 2.93908C0.31858 2.27238 0.318581 1.18142 0.985281 0.514719C1.65198 -0.151982 2.74295 -0.151982 3.40965 0.514719L9.47056 6.57563L15.5315 0.514718C16.1982 -0.151983 17.2891 -0.151982 17.9558 0.514719C18.6225 1.18142 18.6225 2.27238 17.9558 2.93908Z" fill="white"/>
</svg>
